<?xml version="1.0" standalone="no"?><!DOCTYPE svg PUBLIC "-//W3C//DTD SVG 1.1//EN" "http://www.w3.org/Graphics/SVG/1.1/DTD/svg11.dtd"><svg t="1659583110656" class="icon" viewBox="0 0 1024 1024" version="1.1" xmlns="http://www.w3.org/2000/svg" p-id="12370" xmlns:xlink="http://www.w3.org/1999/xlink" width="200" height="200"><defs><style type="text/css">@font-face { font-family: feedback-iconfont; src: url("//at.alicdn.com/t/font_1031158_u69w8yhxdu.woff2?t=1630033759944") format("woff2"), url("//at.alicdn.com/t/font_1031158_u69w8yhxdu.woff?t=1630033759944") format("woff"), url("//at.alicdn.com/t/font_1031158_u69w8yhxdu.ttf?t=1630033759944") format("truetype"); }
</style></defs><path d="M504.33736399 105.566746c16.631605 0 27.716498-10.555821 27.716497-26.385286v-52.78764c0-15.837999-11.084892-26.39382-27.716497-26.39382-16.623072 0-27.707964 10.555821-27.707965 26.39382V79.172926c0 15.837999 11.084892 26.39382 27.707965 26.39382zM909.59727399 302.261719h-49.809482c-14.941991 0-24.909008 10.461954-24.909007 26.146351 0 15.692931 9.967016 26.154885 24.909007 26.154885h49.809482c14.941991 0 24.909008-10.461954 24.909008-26.154885s-9.967016-26.146351-24.909008-26.146351zM151.58349099 302.261719H101.77400899c-14.950525 0-24.909008 10.461954-24.909008 26.146351 0 15.692931 9.958483 26.154885 24.909008 26.154885h49.809482c14.941991 0 24.900474-10.461954 24.900474-26.154885 0.008533-15.692931-9.958483-26.146351-24.900474-26.146351zM214.90988499 185.217543c10.564355 10.564355 25.002875 10.214485 36.104834-0.87894 11.101959-11.101959 11.451829-25.54048 0.887474-36.104834l-35.225893-35.225894c-10.572888-10.572888-25.011408-10.214485-36.104834 0.878941-11.093426 11.093426-11.443295 25.531946-0.878941 36.104834l35.21736 35.225893zM758.98268599 161.417878l35.225893-35.225893c10.564355-10.564355 10.214485-25.011408-0.87894-36.104834-11.093426-11.093426-25.54048-11.443295-36.104835-0.878941l-35.225893 35.225894c-10.564355 10.564355-10.214485 25.011408 0.878941 36.104834 11.101959 11.101959 25.54048 11.451829 36.104834 0.87894zM504.33736399 128.129068c-179.747631 0-325.984583 117.419645-325.984583 261.745114 0 93.927183 26.79489 141.654514 126.610121 269.698248 89.097276 103.100593 77.440645 134.358453 62.694923 173.927849l-0.657072 1.749348c-3.114693 8.277402-6.630455 17.672681-9.386745 33.997083l-5.000575 29.619447c-0.068267 0.307203-0.102401 0.622939-0.153602 0.930141l-0.298669 1.783482h0.119468c-0.119468 1.058142-0.324269 2.090684-0.324269 3.174426 0 65.749881 66.978691 119.245794 149.308977 119.245794h6.886458c81.929216 0 148.583638-53.495912 148.583638-119.245794 0-1.092276-0.196268-2.116284-0.32427-3.174426h0.093868l-0.230402-1.390945c-0.085334-0.503471-0.145068-1.006942-0.256002-1.501879l-4.949375-29.414645c-2.75629-16.44387-6.314719-25.915949-10.035283-35.848832-14.967591-40.149668-25.779415-69.163243 64.0944-173.228111C802.12757899 535.667397 830.32194699 485.200843 830.32194699 390.804323c0-144.837474-146.228419-262.675256-325.984583-262.675255z m96.965074 776.633672c0 34.594422-42.658489 63.821332-93.159176 63.821332h-6.886457c-50.893224 0-93.884516-29.22691-93.884516-63.821332 0-1.092276-0.196268-2.116284-0.324269-3.174427h194.570154c-0.110934 1.049609-0.315736 2.082151-0.315736 3.174427z m-21.845515-84.830574c1.800548 8.601672 4.232569 17.280144 7.296061 26.231685H422.00707799c3.114693-8.943008 5.61498-17.62148 7.483795-26.231685h149.96605z m82.825224-194.877357c-51.482029 59.588763-76.0241 101.922983-83.499363 139.452895H532.05386099V495.355595c24.550605-4.667772 48.35027-15.650264 65.417079-23.577797 13.883849-6.451254 19.908433-22.929258 13.457179-36.804573-6.451254-13.883849-22.937791-19.925499-36.804574-13.457179-17.749481 8.243269-44.587038 20.710573-64.137068 20.710573-25.915949 0-51.012692-7.005925-72.593671-20.275369-13.064642-8.004333-30.114384-3.9595-38.118718 9.096609-8.0214 13.039042-3.942433 30.105851 9.096609 38.118717 20.85564 12.825707 44.075034 21.15431 68.258702 25.310078v270.03105h-45.892649c-7.057125-37.811515-31.309061-80.35907-82.953224-140.084367-96.956541-124.434104-114.006283-159.506396-114.006284-234.540621 0-113.767348 121.379145-206.320653 270.560122-206.320653S774.90601799 276.533504 774.90601799 390.804323c0 75.384095-18.039617 112.760406-112.623871 234.250486z" fill="#666666" p-id="12371"></path></svg>