<?xml version="1.0" standalone="no"?><!DOCTYPE svg PUBLIC "-//W3C//DTD SVG 1.1//EN" "http://www.w3.org/Graphics/SVG/1.1/DTD/svg11.dtd"><svg t="1659583074989" class="icon" viewBox="0 0 1024 1024" version="1.1" xmlns="http://www.w3.org/2000/svg" p-id="11397" xmlns:xlink="http://www.w3.org/1999/xlink" width="200" height="200"><defs><style type="text/css">@font-face { font-family: feedback-iconfont; src: url("//at.alicdn.com/t/font_1031158_u69w8yhxdu.woff2?t=1630033759944") format("woff2"), url("//at.alicdn.com/t/font_1031158_u69w8yhxdu.woff?t=1630033759944") format("woff"), url("//at.alicdn.com/t/font_1031158_u69w8yhxdu.ttf?t=1630033759944") format("truetype"); }
</style></defs><path d="M 709.632 542.106 c 6.144 -12.0832 1.2288 -26.8288 -10.8544 -32.9728 c -20.8896 -10.6496 -42.3936 -19.2512 -64.512 -25.8048 c 58.1632 -37.0688 96.8704 -101.99 96.8704 -176.128 c 0 -115.098 -93.7984 -208.896 -208.896 -208.896 S 313.344 192.102 313.344 307.2 c 0 74.1376 38.912 139.059 97.0752 176.128 C 248.013 531.661 129.024 682.189 129.024 860.16 c 0 13.5168 11.0592 24.576 24.576 24.576 s 24.576 -11.0592 24.576 -24.576 c 0 -189.645 154.419 -344.064 344.064 -344.064 c 54.0672 0 106.086 12.288 154.214 36.864 c 12.288 6.144 27.0336 1.2288 33.1776 -10.8544 Z M 362.496 307.2 c 0 -88.064 71.68 -159.744 159.744 -159.744 s 159.744 71.68 159.744 159.744 s -71.68 159.744 -159.744 159.744 s -159.744 -71.68 -159.744 -159.744 Z" p-id="11398"></path><path d="M 874.701 703.693 c -5.9392 -3.072 -13.312 -10.24 -15.1552 -13.7216 c -1.2288 -2.2528 -2.2528 -4.5056 -3.4816 -6.5536 c -1.2288 -2.2528 -2.6624 -4.3008 -3.8912 -6.3488 c -2.2528 -3.4816 -4.7104 -13.312 -4.3008 -20.0704 a 59.8016 59.8016 0 0 0 -29.9008 -55.0912 c -19.8656 -11.4688 -44.8512 -10.4448 -63.8976 2.4576 c -5.7344 3.8912 -12.4928 5.7344 -20.0704 5.5296 c -4.096 -0.2048 -8.3968 -0.2048 -12.4928 0 c -7.5776 0.4096 -14.9504 -1.6384 -21.0944 -5.9392 a 59.945 59.945 0 0 0 -92.7744 53.4528 c 0.4096 7.5776 -1.4336 14.9504 -5.5296 21.2992 c -2.2528 3.4816 -4.3008 7.168 -6.144 10.8544 c -3.4816 6.5536 -8.6016 11.4688 -14.7456 14.5408 a 60.5389 60.5389 0 0 0 -34.2016 54.0672 c 0 22.528 12.4928 43.008 32.768 53.4528 c 5.9392 3.072 13.312 10.24 15.1552 13.7216 c 1.2288 2.2528 2.2528 4.5056 3.4816 6.5536 c 1.2288 2.2528 2.6624 4.3008 3.8912 6.3488 c 2.2528 3.4816 4.7104 13.312 4.3008 20.0704 a 59.8016 59.8016 0 0 0 59.8016 63.0784 c 11.8784 0 23.9616 -3.4816 33.9968 -10.4448 c 5.7344 -3.8912 12.6976 -5.7344 20.0704 -5.5296 c 4.3008 0.2048 8.6016 0.2048 12.9024 0 c 7.5776 -0.2048 14.5408 1.6384 20.8896 5.5296 c 19.0464 12.0832 42.8032 12.6976 62.2592 1.4336 c 19.456 -11.264 30.9248 -32.1536 29.9008 -54.6816 c -0.4096 -7.3728 1.6384 -14.5408 5.5296 -20.8896 c 2.2528 -3.6864 4.5056 -7.3728 6.5536 -11.264 c 3.4816 -6.5536 8.6016 -11.6736 14.7456 -14.5408 a 60.5389 60.5389 0 0 0 34.2016 -54.0672 a 60.6208 60.6208 0 0 0 -32.768 -53.248 Z m -19.2512 70.656 c -14.336 6.9632 -25.8048 18.2272 -33.3824 32.5632 c -1.4336 2.6624 -3.072 5.5296 -4.7104 8.192 c -8.6016 13.312 -12.6976 28.8768 -11.8784 44.6464 c 0.4096 7.168 -3.2768 13.9264 -9.4208 17.408 a 19.2512 19.2512 0 0 1 -19.8656 -0.6144 c -13.312 -8.6016 -28.8768 -12.6976 -44.6464 -12.0832 c -3.072 0.2048 -6.3488 0.2048 -9.4208 0 c -16.384 -0.8192 -31.744 3.6864 -44.8512 12.6976 c -6.144 4.096 -14.1312 4.5056 -20.2752 0.8192 c -6.144 -3.4816 -9.8304 -10.24 -9.4208 -17.6128 c 0.6144 -12.288 -2.4576 -31.5392 -10.8544 -44.2368 c -1.024 -1.4336 -1.8432 -3.072 -2.8672 -4.7104 c -0.8192 -1.6384 -1.8432 -3.072 -2.4576 -4.7104 c -6.9632 -13.7216 -21.9136 -26.0096 -32.9728 -31.5392 a 18.8416 18.8416 0 0 1 -10.4448 -16.9984 c 0 -7.168 4.3008 -13.9264 11.0592 -17.2032 c 14.336 -6.9632 25.8048 -18.2272 33.3824 -32.5632 c 1.4336 -2.6624 2.8672 -5.3248 4.5056 -7.7824 c 8.6016 -13.5168 12.6976 -29.2864 11.8784 -45.4656 c -0.4096 -7.3728 3.2768 -14.1312 9.4208 -17.6128 a 19.0464 19.0464 0 0 1 20.0704 0.8192 c 13.5168 8.8064 29.2864 13.1072 45.2608 12.4928 c 3.072 -0.2048 5.9392 0 9.0112 0 c 16.1792 0.6144 31.744 -3.6864 44.8512 -12.6976 c 6.144 -4.096 14.1312 -4.5056 20.48 -0.8192 c 6.144 3.4816 9.8304 10.24 9.4208 17.6128 c -0.6144 12.288 2.4576 31.5392 10.8544 44.2368 c 1.024 1.4336 1.8432 3.072 2.8672 4.7104 c 0.8192 1.6384 1.8432 3.072 2.4576 4.7104 c 6.9632 13.7216 21.9136 26.0096 32.9728 31.5392 c 6.5536 3.2768 10.4448 9.8304 10.4448 16.9984 c -0.6144 7.168 -4.7104 13.9264 -11.4688 17.2032 Z" p-id="11399"></path><path d="M 694.682 701.645 c -30.9248 17.8176 -41.3696 57.344 -23.552 88.2688 a 64.5734 64.5734 0 0 0 56.1152 32.1536 c 10.8544 0 22.1184 -2.8672 32.1536 -8.6016 c 14.9504 -8.6016 25.6 -22.528 30.1056 -39.1168 c 4.5056 -16.5888 2.2528 -33.9968 -6.3488 -48.9472 c -18.2272 -31.1296 -57.7536 -41.5744 -88.4736 -23.7568 Z m 54.8864 61.8496 c -1.6384 6.144 -5.5296 11.264 -11.0592 14.336 c -11.264 6.5536 -25.8048 2.6624 -32.1536 -8.6016 c -3.072 -5.5296 -3.8912 -11.8784 -2.4576 -17.8176 c 1.6384 -6.144 5.5296 -11.264 11.0592 -14.336 a 23.6954 23.6954 0 0 1 32.1536 8.8064 c 3.2768 5.3248 4.096 11.6736 2.4576 17.6128 Z" p-id="11400"></path></svg>